<?xml version="1.0" encoding="utf-8"?>
<!-- Generator: Adobe Illustrator 23.0.6, SVG Export Plug-In . SVG Version: 6.00 Build 0)  -->
<svg version="1.1" xmlns="http://www.w3.org/2000/svg" xmlns:xlink="http://www.w3.org/1999/xlink" x="0px" y="0px"
	 viewBox="0 0 175 50" style="enable-background:new 0 0 175 50;" xml:space="preserve">
<style type="text/css">
	.st0{fill:#FEE361;}
	.st1{fill:#556FFF;}
	.st2{fill:#CCCCCC;}
</style>
<g id="Layer_3">
</g>
<g id="Layer_1">
	<title>Iconly/Curved/Star</title>
	<title>Iconly/Curved/Time Circle</title>
	<title>Iconly/Curved/Time Circle</title>
	<g>
		<g>
			<path d="M150.3,2.5c-13,0-23.6,10.6-23.6,23.6s10.6,23.6,23.6,23.6c13,0,23.6-10.6,23.6-23.6S163.4,2.5,150.3,2.5z M150.2,46.2
				c-11,0-19.9-9-19.9-20.1S139.2,6,150.2,6c11,0,19.9,9,19.9,20.1S161.2,46.2,150.2,46.2z"/>
			<path class="st0" d="M150.2,0c-8.1,6-16.3,12.1-24.4,18.1c3,9.7,6.1,19.4,9.1,29c10.2,0,20.3,0,30.5,0c3.2-9.7,6.4-19.4,9.6-29.1
				C166.7,12,158.5,6,150.2,0z M150.2,46.2c-11,0-19.9-9-19.9-20.1S139.2,6,150.2,6c11,0,19.9,9,19.9,20.1S161.2,46.2,150.2,46.2z"
				/>
			<path d="M150.2,4.6c-11.9,0-21.5,9.6-21.5,21.5s9.6,21.5,21.5,21.5c11.9,0,21.5-9.6,21.5-21.5S162.1,4.6,150.2,4.6z M150.2,46.2
				c-11,0-19.9-9-19.9-20.1S139.2,6,150.2,6c11,0,19.9,9,19.9,20.1S161.2,46.2,150.2,46.2z"/>
			<path class="st1" d="M164,23.2l-9.1-2.2c-0.2-0.1-0.5,0.1-0.5,0.4l0.1,7.4l9.5,2.6l0-1.7l-7.5-2.1v-1.4l7.5,2.1v-1.8l-7.6-2.1
				l0-1.3l7.5,2L164,23.2z"/>
			<path class="st1" d="M137.2,23.1l2.4,0.6c0.1,0,0.2,0.2,0.2,0.3v4.2c0,0.1-0.1,0.2-0.2,0.2l-2.7-0.7v1.7c0,0.2,0.1,0.3,0.3,0.4
				l8,1.9v-2.1l-3.2-0.8c-0.1,0-0.2-0.1-0.2-0.3l0-4.2c0-0.1,0.1-0.1,0.1-0.1l3.2,0.8v-2.1l-8.3-2v1.8C136.9,22.8,137,23,137.2,23.1
				z"/>
			<path class="st1" d="M145.4,20.8c-0.1,0-0.2,0.1-0.2,0.2v7.3l1.8,0.5l0-5.3l1.8,0.6l0,4.8c0,0.2,0.1,0.4,0.3,0.4l1.6,0.5l0-5.3
				l1.5,0.5c0.3,0.1,0.4,0.3,0.4,0.6l-0.1,4.4c0,0.2,0.1,0.4,0.3,0.4l1.7,0.5v-6.3c0-0.7-0.4-1.2-1.1-1.4L145.4,20.8z"/>
		</g>
		<g>
			<g>
				<path class="st1" d="M11.9,22.9c0,2.1-0.7,3.6-2,4.5c-1.1,0.7-2.8,1.1-5,1.1c-1.7,0-3-0.5-3.8-1.4c-0.7-0.8-1-1.7-1-2.9
					c0-0.6,0.2-1.4,0.5-2.6c0.4-1.3,0.8-2,1.3-2c0.3,0,0.4,0.2,0.4,0.6c0,0.1-0.1,0.5-0.3,1.2c-0.2,0.7-0.3,1.2-0.3,1.5
					c0,1.1,0.4,1.8,1.3,2.2c0.6,0.3,1.5,0.5,2.7,0.5c1.1,0,2.1-0.1,3-0.4c1.4-0.4,2.1-1,2.1-1.8c0-0.4-0.3-1.1-0.9-2
					c-0.5-0.8-1-1.4-1.4-1.7l1.2-2.4c0.1-0.2,0.2-0.2,0.3,0C11.2,19.3,11.9,21.1,11.9,22.9z M7.3,15.9l-1.5,1.5l-1.5-1.5l1.5-1.5
					L7.3,15.9z"/>
				<path class="st1" d="M16.3,21c0,0.5-0.3,1.4-0.8,2.6c-0.1,0.3-0.3,0.5-0.3,0.5c-0.1,0-0.2-0.3-0.2-1l-1.1-11.8l2.1-1.7
					c0.1-0.1,0.2-0.2,0.3-0.2c0.1,0,0.1,0.1,0.1,0.2V21z"/>
				<g>
					<polygon class="st1" points="26,25.8 27.4,27.2 28.8,25.8 27.4,24.4 					"/>
					<path class="st1" d="M29.2,20.9c0.4-0.8,0.6-1.7,0.6-2.8c0-0.5-0.1-1.1-0.3-1.7c-0.2-0.7-0.5-1.2-0.8-1.5
						c-0.1-0.1-0.2-0.1-0.3,0.1L27,16.7c-0.1,0.1-0.1,0.3,0,0.4c0.8,0.9,1.2,1.6,1.2,1.9c0,0.4-0.5,0.6-1.6,0.6H26h-0.6H25
						c-0.9,0-2-0.8-3.1-2.3c-0.1-0.1-0.2-0.1-0.2,0l-1.2,2.4c0.5,0.4,0.9,0.8,1.3,1.3c0.5,0.6,0.8,1.1,0.8,1.5
						c0,0.8-0.7,1.7-2.1,2.7c-1.3,1-2.6,1.7-3.9,2.2c-0.2,0.1-0.2,0.1,0,0.2c1,0.4,2.5,0.6,4.5,0.6c0.1,0,0.4-0.2,0.8-0.6
						c1.4-1.3,2.1-3.1,2.1-5.4c0.4,0.2,0.9,0.3,1.6,0.3v0h0.1H26h0.5C27.7,22.4,28.6,21.9,29.2,20.9z"/>
					<polygon class="st1" points="30.4,24.4 29.1,25.8 30.4,27.2 31.8,25.8 					"/>
				</g>
				<path class="st1" d="M36.1,21c0,0.5-0.3,1.4-0.8,2.6C35.1,23.9,35,24,34.9,24c-0.1,0-0.2-0.3-0.2-1l-1.1-11.8l2.1-1.7
					c0.1-0.1,0.2-0.2,0.3-0.2c0.1,0,0.1,0.1,0.1,0.2V21z"/>
				<path class="st1" d="M52.5,17c0,0.2,0.1,0.3,0.1,0.4c0,0.1,0,0.2-0.1,0.2c-0.1,0-0.2,0-0.3-0.1c-0.4-0.2-1-0.3-1.9-0.3
					c-0.9,0-1.7,0.3-2.4,1c-0.5,0.5-0.8,0.9-0.8,1.2c0,0.3,0.3,0.6,0.8,0.8c0.3,0.1,0.9,0.2,1.7,0.3c0.8,0.1,1.3,0.3,1.6,0.5
					c0.4,0.3,0.6,0.9,0.6,1.8c0,2.1-0.9,3.6-2.7,4.4C48,27.8,46.5,28,44.5,28c-3.5,0-5.3-1.5-5.3-4.4c0-0.6,0.2-1.4,0.5-2.6
					c0.4-1.3,0.8-2,1.3-2c0.3,0,0.4,0.2,0.4,0.6c0,0.1-0.1,0.5-0.3,1.2c-0.2,0.7-0.3,1.2-0.3,1.5c0,1.9,1.4,2.8,4.2,2.8
					c1.2,0,2.4-0.1,3.5-0.4c1.5-0.3,2.2-0.8,2.2-1.4c0-0.3-0.4-0.5-1.3-0.6c-1.3-0.1-2.1-0.3-2.4-0.4c-0.9-0.3-1.3-0.9-1.3-1.8
					c0-1,0.4-2.2,1.3-3.5c1-1.5,2-2.3,3.1-2.3c0.7,0,1.3,0.3,1.8,0.9C52.2,16.2,52.4,16.6,52.5,17z"/>
				<path class="st1" d="M64.9,12.4C64.9,12.5,64.9,12.5,64.9,12.4c0,0.1,0,0.1-0.1,0.1c-0.1,0-0.4,0-0.8-0.1c0,1.9-0.3,3.6-0.9,5
					c-0.4,0.9-0.8,1.5-1.2,1.9c0.5,0.8,0.8,1.5,0.8,2.1c0,1.1-0.4,1.9-1.2,2.3c-0.5,0.3-1.7,0.4-3.5,0.4c-0.6,0-1.1,0-1.6-0.1
					l0.9-2.7c1-0.5,1.9-1.1,2.8-2c-1.1-1.3-2.4-2.8-4-4.3c-0.2,0.5-0.3,0.8-0.3,0.8c0,0-0.1-0.1-0.1-0.1c-1.2-1.5-1.7-2.4-1.7-2.6
					c0-0.5,0.2-1.3,0.5-2.5c0-0.1,0.1-0.2,0.1-0.2c0,0,0.1,0,0.2,0.1c1.4,1.1,3.6,3.5,6.5,7.5c0.6-0.5,0.9-1.4,0.9-2.7v-2.1
					c0-0.5-0.1-1.2-0.3-2.1l1.9-1.8c0.1-0.1,0.1-0.1,0.2,0.1C64.1,10.6,64.5,11.6,64.9,12.4z M61.4,21.5c-0.1-0.4-0.3-0.8-0.6-1.1
					c-0.6,0.5-1.2,0.9-1.7,1.2c0.3,0.1,0.7,0.1,1.2,0.1C60.7,21.7,61.1,21.6,61.4,21.5z"/>
				<path class="st1" d="M80.7,9.6c-3.6,1.3-6.3,2.3-8,3l-0.5,2.9c0.7,0.4,1.5,1.1,2.3,2.1c0.9,1,1.4,1.7,1.4,2.2
					c0,0.3-0.2,0.5-0.6,0.6c-0.5,0.1-1.6,0.2-3.2,0.2h-0.9v0h-0.1c-1.2,0-1.8-0.5-1.8-1.6V9.7c0-0.2,0-0.3-0.1-0.3l0,0
					c0,0-0.2,0.1-0.4,0.3L67,11.1c-0.1,0.1-0.1,0.2,0,0.4c0.1,0.7,0.2,2,0.4,4.1c0.1,1.8,0.2,3.2,0.2,4.1c0,1.3,0.3,2.3,1,3
					c0.5,0.5,1.1,0.7,1.9,0.7h0.7h0.6h0.7c3.1,0,4.7-1.4,4.7-4.3c0-0.9-0.3-1.8-0.9-2.6c-0.4-0.6-1.1-1.4-2-2.3c2.8-1,4.7-1.7,5.9-2
					L80.7,9.6z"/>
				<path class="st1" d="M100.5,18.2c0,1-0.2,2-0.6,2.8c-0.5,1-1.3,1.5-2.3,1.5c-0.9,0-1.6-0.5-2.1-1.4c-0.5,1-1.2,1.4-1.9,1.4
					c-0.3,0-0.6-0.1-0.8-0.2c0.1,0.4,0.1,0.7,0.1,1.1c0,1.8-0.7,3.1-2.1,4c-1.1,0.7-2.7,1.1-4.6,1.1c-1.7,0-3-0.5-3.8-1.4
					c-0.7-0.8-1-1.7-1-2.9c0-0.6,0.2-1.4,0.5-2.6c0.4-1.3,0.8-2,1.3-2c0.3,0,0.4,0.2,0.4,0.6c0,0.1-0.1,0.5-0.3,1.2
					c-0.2,0.7-0.3,1.2-0.3,1.5c0,1.1,0.4,1.8,1.3,2.2c0.6,0.3,1.5,0.5,2.7,0.5c1.2,0,2.2-0.2,3.2-0.5c1.1-0.4,1.7-1,1.7-1.6
					c0-0.4-0.3-1.1-1-2c-0.6-0.8-1-1.3-1.5-1.7l1.1-2.3c0.1-0.2,0.2-0.2,0.3,0c0.9,1.4,1.9,2.1,2.8,2.1c0.5,0,0.9-0.2,1.2-0.7
					c0.1-0.1,0.2-0.5,0.3-1.2c0.1-0.4,0.3-0.7,0.6-0.7c0.2,0,0.4,0.2,0.5,0.7c0.1,0.7,0.3,1.1,0.4,1.3c0.3,0.5,0.8,0.7,1.5,0.7
					c0.8,0,1.2-0.3,1.2-0.9c0-0.3-0.3-0.9-1-1.7l1-1.6c0.1-0.2,0.2-0.3,0.2-0.3c0,0,0.1,0.1,0.2,0.2c0.2,0.2,0.4,0.6,0.6,1.1
					C100.4,17.1,100.5,17.7,100.5,18.2z"/>
				<path class="st1" d="M107.2,21.7c0,2.1-0.7,3.9-2.1,5.4c-0.4,0.5-0.7,0.7-0.8,0.7c-2,0-2.5-0.2-3.5-0.6c-0.2-0.1-0.2-0.2,0-0.2
					c1.4-0.5,1.7-1.2,2.9-2.1c1.4-1.1,2.1-2,2.1-2.9c0-0.4-0.3-0.9-0.8-1.5c-0.4-0.5-0.8-1-1.2-1.3l1.1-2.3c0.1-0.1,0.2-0.2,0.3,0
					C106.5,18.2,107.2,19.8,107.2,21.7z"/>
				<g>
					<path class="st1" d="M120.9,20.9c0.4-0.8,0.6-1.7,0.6-2.8c0-0.5-0.1-1.1-0.3-1.7c-0.2-0.7-0.5-1.2-0.8-1.5
						c-0.1-0.1-0.2-0.1-0.3,0.1l-1.3,1.8c-0.1,0.1-0.1,0.3,0,0.4c0.8,0.9,1.2,1.6,1.2,1.9c0,0.4-0.5,0.6-1.6,0.6h-0.6h-0.6h-1.4
						c-0.1-1-0.4-1.8-0.9-2.5c-0.6-0.9-1.2-1.3-2.1-1.3c-0.8,0-1.5,0.6-2.1,1.8c-0.5,1-0.7,1.9-0.7,2.7c0,0.9,0.3,1.5,0.9,1.8
						c0.5,0.2,1.2,0.3,2.2,0.3h0.7h0.7c0,0.7-0.7,1.6-2.1,2.7c-1.3,1-2.6,1.8-3.9,2.2c-0.2,0.1-0.2,0.1,0,0.2
						c1.1,0.4,2.6,0.6,4.5,0.6c0.1,0,0.4-0.2,0.8-0.7c1.3-1.4,1.9-3.1,1.9-5h1.4h0.6h0.5C119.4,22.4,120.3,21.9,120.9,20.9z
						 M112.7,19.7c-0.8,0-1.2-0.3-1.2-0.8c0-0.2,0.1-0.4,0.3-0.6s0.4-0.2,0.6-0.2c0.3,0,0.5,0.1,0.9,0.3c0.4,0.3,0.7,0.7,0.9,1.2
						C113.5,19.7,113,19.7,112.7,19.7z"/>
					
						<rect x="118.5" y="24.8" transform="matrix(0.7073 -0.7069 0.7069 0.7073 16.6952 92.1355)" class="st1" width="2.1" height="2.1"/>
				</g>
			</g>
		</g>
		<g>
			<g>
				<path class="st2" d="M0.8,39.5H0v-7.4h0.8V39.5z"/>
				<path class="st2" d="M2.3,34h0.8v1c0.4-0.6,1-1,1.8-1h0.2v0.7H4.7c-0.5,0-0.9,0.2-1.2,0.6s-0.4,0.9-0.4,1.4v2.8H2.3V34z"/>
				<path class="st2" d="M6.6,35.6H5.8c0-0.3,0.1-0.5,0.2-0.7c0.1-0.2,0.3-0.4,0.5-0.5c0.2-0.1,0.4-0.2,0.6-0.3
					c0.2-0.1,0.5-0.1,0.7-0.1c0.2,0,0.5,0,0.7,0.1c0.2,0.1,0.4,0.2,0.6,0.3c0.2,0.1,0.3,0.3,0.5,0.5c0.1,0.2,0.2,0.5,0.2,0.7v2.2
					c0,0.7,0.1,1.3,0.2,1.7H9.3c-0.1-0.2-0.1-0.5-0.1-0.7c-0.2,0.3-0.5,0.5-0.8,0.6c-0.3,0.1-0.6,0.2-1,0.2c-0.5,0-0.9-0.1-1.2-0.4
					c-0.3-0.3-0.4-0.6-0.4-1.1c0-0.3,0.1-0.5,0.2-0.7C6,37.2,6.1,37,6.3,36.9c0.2-0.1,0.4-0.2,0.6-0.3c0.2-0.1,0.5-0.1,0.7-0.2
					c0.2,0,0.5-0.1,0.8-0.1c0.2,0,0.4,0,0.7,0v-0.8c0-0.3-0.1-0.5-0.3-0.7c-0.2-0.2-0.5-0.2-0.9-0.2c-0.3,0-0.6,0.1-0.9,0.2
					C6.7,35,6.6,35.3,6.6,35.6z M9,37.5v-0.6c-0.2,0-0.4-0.1-0.7-0.1c-0.3,0-0.6,0-0.9,0.1C7.2,37,7,37.2,6.8,37.4
					c-0.2,0.2-0.3,0.4-0.3,0.7c0,0.3,0.1,0.5,0.3,0.6c0.2,0.2,0.4,0.2,0.7,0.2c0.5,0,0.9-0.1,1.1-0.4C8.9,38.3,9,38,9,37.5z"/>
				<path class="st2" d="M12.1,39.5h-0.8V34h0.8v0.9c0.2-0.3,0.4-0.5,0.7-0.7c0.3-0.2,0.6-0.3,0.9-0.3c0.3,0,0.5,0,0.7,0.1
					c0.2,0.1,0.4,0.2,0.5,0.3c0.1,0.1,0.3,0.3,0.4,0.5c0.1,0.2,0.2,0.3,0.2,0.5c0,0.2,0.1,0.3,0.1,0.5v3.6h-0.8v-3.4
					c0-0.5-0.1-0.9-0.3-1.2c-0.2-0.2-0.6-0.4-1-0.4c-0.4,0-0.7,0.1-1,0.4c-0.3,0.3-0.4,0.7-0.4,1.2V39.5z"/>
				<path class="st2" d="M22.5,39.5h-0.8v-7.4h0.9l2.8,6.5l3-6.5h0.9v7.4h-0.8v-6l-2.8,6H25l-2.5-5.9V39.5z"/>
				<path class="st2" d="M31.3,37.1c0.1,0.6,0.3,1.1,0.6,1.4c0.3,0.3,0.8,0.5,1.3,0.5c0.5,0,1.1-0.1,1.7-0.4l0.3,0.6
					c-0.7,0.3-1.3,0.5-2,0.5c-0.5,0-1-0.1-1.4-0.3c-0.4-0.2-0.7-0.5-1-1c-0.2-0.4-0.4-0.9-0.4-1.6c0-0.4,0-0.7,0.1-1
					c0.1-0.3,0.2-0.6,0.4-0.9c0.2-0.3,0.4-0.5,0.8-0.7c0.3-0.2,0.7-0.2,1.1-0.2c0.3,0,0.6,0.1,0.9,0.2c0.3,0.1,0.5,0.3,0.7,0.4
					c0.2,0.2,0.4,0.4,0.5,0.6c0.1,0.2,0.2,0.5,0.3,0.8c0.1,0.3,0.1,0.5,0.1,0.8v0.3H31.3z M31.3,36.4h3.3c-0.1-0.5-0.2-1-0.5-1.3
					c-0.3-0.3-0.7-0.5-1.2-0.5c-0.5,0-0.9,0.2-1.1,0.5C31.5,35.4,31.4,35.9,31.3,36.4z"/>
				<path class="st2" d="M36.6,34h0.8v1c0.4-0.6,1-1,1.8-1h0.2v0.7H39c-0.5,0-0.9,0.2-1.2,0.6s-0.4,0.9-0.4,1.4v2.8h-0.8V34z"/>
				<path class="st2" d="M44.7,35.1L44,35.4c-0.3-0.5-0.7-0.8-1.4-0.8c-0.5,0-0.9,0.2-1.2,0.6c-0.3,0.4-0.4,0.9-0.4,1.6
					c0,0.6,0.1,1.2,0.4,1.5c0.3,0.4,0.7,0.6,1.2,0.6c0.6,0,1.1-0.3,1.4-0.8l0.7,0.3c-0.2,0.4-0.5,0.6-0.8,0.9
					c-0.4,0.2-0.8,0.3-1.2,0.3c-0.3,0-0.6-0.1-0.9-0.2c-0.3-0.1-0.5-0.3-0.7-0.4c-0.2-0.2-0.3-0.4-0.5-0.6c-0.1-0.2-0.2-0.5-0.3-0.8
					c-0.1-0.3-0.1-0.5-0.1-0.8c0-0.4,0-0.7,0.1-1c0.1-0.3,0.2-0.6,0.4-0.9c0.2-0.3,0.4-0.5,0.8-0.7c0.3-0.2,0.7-0.2,1.1-0.2
					c0.5,0,0.9,0.1,1.3,0.3C44.2,34.5,44.5,34.7,44.7,35.1z"/>
				<path class="st2" d="M46.4,35.6h-0.8c0-0.3,0.1-0.5,0.2-0.7c0.1-0.2,0.3-0.4,0.5-0.5c0.2-0.1,0.4-0.2,0.6-0.3
					c0.2-0.1,0.5-0.1,0.7-0.1c0.2,0,0.5,0,0.7,0.1c0.2,0.1,0.4,0.2,0.6,0.3c0.2,0.1,0.3,0.3,0.5,0.5c0.1,0.2,0.2,0.5,0.2,0.7v2.2
					c0,0.7,0.1,1.3,0.2,1.7H49c-0.1-0.2-0.1-0.5-0.1-0.7c-0.2,0.3-0.5,0.5-0.8,0.6c-0.3,0.1-0.6,0.2-1,0.2c-0.5,0-0.9-0.1-1.2-0.4
					c-0.3-0.3-0.4-0.6-0.4-1.1c0-0.3,0.1-0.5,0.2-0.7c0.1-0.2,0.2-0.4,0.4-0.5c0.2-0.1,0.4-0.2,0.6-0.3c0.2-0.1,0.5-0.1,0.7-0.2
					c0.2,0,0.5-0.1,0.8-0.1c0.2,0,0.4,0,0.7,0v-0.8c0-0.3-0.1-0.5-0.3-0.7c-0.2-0.2-0.5-0.2-0.9-0.2c-0.3,0-0.6,0.1-0.9,0.2
					C46.5,35,46.4,35.3,46.4,35.6z M48.8,37.5v-0.6c-0.2,0-0.4-0.1-0.7-0.1c-0.3,0-0.6,0-0.9,0.1c-0.3,0.1-0.5,0.2-0.7,0.4
					c-0.2,0.2-0.3,0.4-0.3,0.7c0,0.3,0.1,0.5,0.3,0.6c0.2,0.2,0.4,0.2,0.7,0.2c0.5,0,0.9-0.1,1.1-0.4C48.7,38.3,48.8,38,48.8,37.5z"
					/>
				<path class="st2" d="M51.9,39.5h-0.8V34h0.8v0.9c0.2-0.3,0.4-0.5,0.7-0.7s0.6-0.3,0.9-0.3c0.3,0,0.5,0,0.7,0.1
					c0.2,0.1,0.4,0.2,0.5,0.3c0.1,0.1,0.3,0.3,0.4,0.5c0.1,0.2,0.2,0.3,0.2,0.5c0,0.2,0.1,0.3,0.1,0.5v3.6h-0.8v-3.4
					c0-0.5-0.1-0.9-0.3-1.2c-0.2-0.2-0.6-0.4-1-0.4c-0.4,0-0.7,0.1-1,0.4c-0.3,0.3-0.4,0.7-0.4,1.2V39.5z"/>
				<path class="st2" d="M59.6,38.8v0.7h-0.8c-0.4,0-0.7-0.1-0.9-0.4c-0.2-0.3-0.4-0.5-0.4-0.9v-3.6h-0.8v-0.6h0.8v-1.3h0.8v1.3h1.5
					v0.6h-1.5v3.6c0,0.2,0.1,0.3,0.2,0.4c0.1,0.1,0.2,0.2,0.4,0.2H59.6z"/>
				<path class="st2" d="M61.2,32.8c-0.1-0.1-0.2-0.2-0.2-0.4c0-0.2,0.1-0.3,0.2-0.4c0.1-0.1,0.2-0.2,0.4-0.2c0.2,0,0.3,0.1,0.4,0.2
					c0.1,0.1,0.2,0.2,0.2,0.4c0,0.2-0.1,0.3-0.2,0.4c-0.1,0.1-0.2,0.2-0.4,0.2C61.4,32.9,61.3,32.9,61.2,32.8z M61.2,34H62v5.5h-0.8
					V34z"/>
				<path class="st2" d="M64.5,39.5h-0.8v-7.4h0.8V39.5z"/>
				<path class="st2" d="M66.4,37.1c0.1,0.6,0.3,1.1,0.6,1.4c0.3,0.3,0.8,0.5,1.3,0.5c0.5,0,1.1-0.1,1.7-0.4l0.3,0.6
					c-0.7,0.3-1.3,0.5-2,0.5c-0.5,0-1-0.1-1.4-0.3c-0.4-0.2-0.7-0.5-1-1c-0.2-0.4-0.4-0.9-0.4-1.6c0-0.4,0-0.7,0.1-1
					c0.1-0.3,0.2-0.6,0.4-0.9c0.2-0.3,0.4-0.5,0.8-0.7c0.3-0.2,0.7-0.2,1.1-0.2c0.3,0,0.6,0.1,0.9,0.2c0.3,0.1,0.5,0.3,0.7,0.4
					c0.2,0.2,0.4,0.4,0.5,0.6c0.1,0.2,0.2,0.5,0.3,0.8c0.1,0.3,0.1,0.5,0.1,0.8v0.3H66.4z M66.4,36.4h3.3c-0.1-0.5-0.2-1-0.5-1.3
					c-0.3-0.3-0.7-0.5-1.2-0.5c-0.5,0-0.9,0.2-1.1,0.5C66.6,35.4,66.5,35.9,66.4,36.4z"/>
				<path class="st2" d="M80.7,38.8v0.7h-4.5v-7.4h4.5v0.7h-3.7v2.7h3.7v0.7h-3.7v2.7H80.7z"/>
				<path class="st2" d="M86.3,34h1L85,36.8l2.2,2.6h-1l-1.7-2.2l-1.7,2.2h-1l2.2-2.6L81.7,34h1l1.8,2.4L86.3,34z"/>
				<path class="st2" d="M92.3,35.1l-0.7,0.3c-0.3-0.5-0.7-0.8-1.4-0.8c-0.5,0-0.9,0.2-1.2,0.6c-0.3,0.4-0.4,0.9-0.4,1.6
					c0,0.6,0.1,1.2,0.4,1.5c0.3,0.4,0.7,0.6,1.2,0.6c0.6,0,1.1-0.3,1.4-0.8l0.7,0.3c-0.2,0.4-0.5,0.6-0.8,0.9
					c-0.4,0.2-0.8,0.3-1.2,0.3c-0.3,0-0.6-0.1-0.9-0.2c-0.3-0.1-0.5-0.3-0.7-0.4c-0.2-0.2-0.3-0.4-0.5-0.6c-0.1-0.2-0.2-0.5-0.3-0.8
					c-0.1-0.3-0.1-0.5-0.1-0.8c0-0.4,0-0.7,0.1-1c0.1-0.3,0.2-0.6,0.4-0.9c0.2-0.3,0.4-0.5,0.8-0.7c0.3-0.2,0.7-0.2,1.1-0.2
					c0.5,0,0.9,0.1,1.3,0.3C91.9,34.5,92.1,34.7,92.3,35.1z"/>
				<path class="st2" d="M94.6,39.5h-0.8v-7.4h0.8v2.8c0.2-0.3,0.4-0.5,0.7-0.7c0.3-0.2,0.6-0.3,0.9-0.3c0.3,0,0.5,0,0.7,0.1
					c0.2,0.1,0.4,0.2,0.5,0.3c0.1,0.1,0.3,0.3,0.4,0.5c0.1,0.2,0.2,0.3,0.2,0.5c0,0.2,0.1,0.3,0.1,0.5v3.6h-0.8v-3.4
					c0-0.5-0.1-0.9-0.3-1.2c-0.2-0.2-0.6-0.4-1-0.4c-0.4,0-0.7,0.1-1,0.4c-0.3,0.3-0.4,0.7-0.4,1.2V39.5z"/>
				<path class="st2" d="M100.4,35.6h-0.8c0-0.3,0.1-0.5,0.2-0.7c0.1-0.2,0.3-0.4,0.5-0.5c0.2-0.1,0.4-0.2,0.6-0.3
					c0.2-0.1,0.5-0.1,0.7-0.1c0.2,0,0.5,0,0.7,0.1c0.2,0.1,0.4,0.2,0.6,0.3c0.2,0.1,0.3,0.3,0.5,0.5c0.1,0.2,0.2,0.5,0.2,0.7v2.2
					c0,0.7,0.1,1.3,0.2,1.7H103c-0.1-0.2-0.1-0.5-0.1-0.7c-0.2,0.3-0.5,0.5-0.8,0.6c-0.3,0.1-0.6,0.2-1,0.2c-0.5,0-0.9-0.1-1.2-0.4
					c-0.3-0.3-0.4-0.6-0.4-1.1c0-0.3,0.1-0.5,0.2-0.7c0.1-0.2,0.2-0.4,0.4-0.5c0.2-0.1,0.4-0.2,0.6-0.3c0.2-0.1,0.5-0.1,0.7-0.2
					c0.2,0,0.5-0.1,0.8-0.1c0.2,0,0.4,0,0.7,0v-0.8c0-0.3-0.1-0.5-0.3-0.7c-0.2-0.2-0.5-0.2-0.9-0.2c-0.3,0-0.6,0.1-0.9,0.2
					C100.5,35,100.4,35.3,100.4,35.6z M102.8,37.5v-0.6c-0.2,0-0.4-0.1-0.7-0.1c-0.3,0-0.6,0-0.9,0.1c-0.3,0.1-0.5,0.2-0.7,0.4
					c-0.2,0.2-0.3,0.4-0.3,0.7c0,0.3,0.1,0.5,0.3,0.6c0.2,0.2,0.4,0.2,0.7,0.2c0.5,0,0.9-0.1,1.1-0.4
					C102.7,38.3,102.8,38,102.8,37.5z"/>
				<path class="st2" d="M105.9,39.5h-0.8V34h0.8v0.9c0.2-0.3,0.4-0.5,0.7-0.7s0.6-0.3,0.9-0.3c0.3,0,0.5,0,0.7,0.1
					c0.2,0.1,0.4,0.2,0.5,0.3c0.1,0.1,0.3,0.3,0.4,0.5s0.2,0.3,0.2,0.5c0,0.2,0.1,0.3,0.1,0.5v3.6h-0.8v-3.4c0-0.5-0.1-0.9-0.3-1.2
					c-0.2-0.2-0.6-0.4-1-0.4c-0.4,0-0.7,0.1-1,0.4c-0.3,0.3-0.4,0.7-0.4,1.2V39.5z"/>
				<path class="st2" d="M114.6,34h0.8v5.1c0,0.4-0.1,0.8-0.2,1.2c-0.1,0.3-0.3,0.6-0.6,0.8c-0.2,0.2-0.5,0.4-0.8,0.5
					c-0.3,0.1-0.6,0.2-1,0.2c-0.7,0-1.5-0.2-2.2-0.6l0.3-0.6c0.6,0.4,1.3,0.6,1.9,0.6c0.2,0,0.5,0,0.7-0.1c0.2-0.1,0.4-0.2,0.6-0.3
					c0.2-0.1,0.3-0.4,0.4-0.6c0.1-0.3,0.1-0.6,0.1-0.9v-0.8c-0.2,0.4-0.4,0.7-0.8,0.9c-0.3,0.2-0.7,0.3-1.1,0.3
					c-0.3,0-0.6-0.1-0.9-0.2c-0.3-0.1-0.5-0.3-0.6-0.4c-0.2-0.2-0.3-0.4-0.4-0.6c-0.1-0.3-0.2-0.5-0.2-0.8c0-0.3-0.1-0.5-0.1-0.8
					s0-0.6,0.1-0.8c0-0.3,0.1-0.5,0.2-0.8c0.1-0.2,0.2-0.5,0.4-0.6c0.2-0.2,0.4-0.3,0.6-0.4c0.3-0.1,0.6-0.2,0.9-0.2
					c0.4,0,0.8,0.1,1.1,0.3c0.3,0.2,0.6,0.5,0.8,0.9V34z M114.2,38.3c0.3-0.4,0.4-0.9,0.4-1.6s-0.1-1.2-0.4-1.5
					c-0.3-0.4-0.7-0.6-1.2-0.6s-0.9,0.2-1.2,0.6c-0.3,0.4-0.4,0.9-0.4,1.5s0.1,1.2,0.4,1.6c0.3,0.4,0.7,0.6,1.2,0.6
					S113.9,38.7,114.2,38.3z"/>
				<path class="st2" d="M117.4,37.1c0.1,0.6,0.3,1.1,0.6,1.4c0.3,0.3,0.8,0.5,1.3,0.5c0.5,0,1.1-0.1,1.7-0.4l0.3,0.6
					c-0.7,0.3-1.3,0.5-2,0.5c-0.5,0-1-0.1-1.4-0.3c-0.4-0.2-0.7-0.5-1-1c-0.2-0.4-0.4-0.9-0.4-1.6c0-0.4,0-0.7,0.1-1
					c0.1-0.3,0.2-0.6,0.4-0.9c0.2-0.3,0.4-0.5,0.8-0.7c0.3-0.2,0.7-0.2,1.1-0.2c0.3,0,0.6,0.1,0.9,0.2c0.3,0.1,0.5,0.3,0.7,0.4
					c0.2,0.2,0.4,0.4,0.5,0.6c0.1,0.2,0.2,0.5,0.3,0.8c0.1,0.3,0.1,0.5,0.1,0.8v0.3H117.4z M117.4,36.4h3.3c-0.1-0.5-0.2-1-0.5-1.3
					c-0.3-0.3-0.7-0.5-1.2-0.5c-0.5,0-0.9,0.2-1.1,0.5C117.6,35.4,117.4,35.9,117.4,36.4z"/>
			</g>
		</g>
	</g>
</g>
</svg>
