<?xml version="1.0" encoding="utf-8"?>
<!-- Generator: Adobe Illustrator 23.0.6, SVG Export Plug-In . SVG Version: 6.00 Build 0)  -->
<svg version="1.1" id="Layer_1" xmlns="http://www.w3.org/2000/svg" xmlns:xlink="http://www.w3.org/1999/xlink" x="0px" y="0px"
	 viewBox="0 0 117 150" style="enable-background:new 0 0 117 150;" xml:space="preserve">
<style type="text/css">
	.st0{fill:#FEE361;}
	.st1{fill:#556FFF;}
	.st2{fill:#CCCCCC;}
</style>
<g>
	<path d="M58.3,5.5C30.2,5.5,7.4,28.3,7.4,56.4s22.8,50.9,50.9,50.9c28.1,0,50.9-22.8,50.9-50.9S86.4,5.5,58.3,5.5z M58,99.8
		c-23.7,0-42.9-19.4-42.9-43.4S34.3,13,58,13s42.9,19.4,42.9,43.4S81.7,99.8,58,99.8z"/>
	<path class="st0" d="M58.1,0.2c-17.5,13-35.1,26-52.6,39C12,60,18.5,80.9,25.1,101.8c21.9,0,43.8,0,65.7,0
		c6.9-20.9,13.8-41.9,20.7-62.8C93.7,26,75.9,13.1,58.1,0.2z M58,99.8c-23.7,0-42.9-19.4-42.9-43.4S34.3,13,58,13
		s42.9,19.4,42.9,43.4S81.7,99.8,58,99.8z"/>
	<path d="M58.1,10.2c-25.6,0-46.3,20.7-46.3,46.3s20.7,46.3,46.3,46.3c25.6,0,46.3-20.7,46.3-46.3S83.6,10.2,58.1,10.2z M58,99.8
		c-23.7,0-42.9-19.4-42.9-43.4S34.3,13,58,13s42.9,19.4,42.9,43.4S81.7,99.8,58,99.8z"/>
	<path class="st1" d="M87.8,50.3l-19.6-4.7c-0.5-0.1-1,0.3-1,0.8l0.3,15.8L88,67.7L87.9,64l-16.2-4.6v-2.9l16.2,4.6v-3.9l-16.3-4.6
		l0.1-2.8l16.2,4.4L87.8,50.3z"/>
	<path class="st1" d="M30,49.9l5.2,1.2c0.3,0.1,0.5,0.3,0.5,0.6v9c0,0.3-0.3,0.5-0.5,0.4l-5.9-1.4v3.8c0,0.4,0.3,0.7,0.6,0.8
		l17.3,4.2V64l-6.9-1.7c-0.3-0.1-0.4-0.3-0.4-0.6l0-9.1c0-0.2,0.2-0.3,0.3-0.2l7,1.6v-4.6l-17.9-4.3V49C29.3,49.4,29.6,49.8,30,49.9
		z"/>
	<path class="st1" d="M47.7,44.9c-0.3-0.1-0.5,0.1-0.5,0.4v15.8l3.8,1.1l0-11.5l3.9,1.4l0.1,10.4c0,0.4,0.3,0.8,0.7,0.9l3.4,1.1
		l-0.1-11.3l3.2,1c0.6,0.2,0.9,0.7,0.9,1.3L63.1,65c0,0.4,0.3,0.8,0.7,0.9l3.7,1.1V53.4c0-1.4-0.9-2.7-2.3-3.1L47.7,44.9z"/>
</g>
<g>
	<g>
		<path class="st1" d="M12.9,129.4c0,2-0.6,3.4-1.8,4.2c-1,0.7-2.6,1-4.7,1c-1.6,0-2.8-0.4-3.6-1.3c-0.6-0.7-0.9-1.6-0.9-2.7
			c0-0.5,0.2-1.3,0.5-2.4c0.4-1.2,0.8-1.8,1.2-1.8c0.3,0,0.4,0.2,0.4,0.6c0,0.1-0.1,0.5-0.3,1.1c-0.2,0.6-0.3,1.1-0.3,1.4
			c0,1,0.4,1.7,1.2,2.1c0.6,0.3,1.4,0.4,2.5,0.4c1,0,2-0.1,2.8-0.3c1.3-0.3,1.9-0.9,1.9-1.6c0-0.4-0.3-1-0.8-1.8
			c-0.5-0.8-0.9-1.3-1.3-1.6l1.1-2.2c0.1-0.1,0.2-0.1,0.3,0C12.2,126.1,12.9,127.7,12.9,129.4z M8.6,122.9l-1.4,1.4l-1.4-1.4
			l1.4-1.4L8.6,122.9z"/>
		<path class="st1" d="M17,127.6c0,0.5-0.3,1.3-0.8,2.4c-0.1,0.3-0.2,0.4-0.3,0.4c-0.1,0-0.2-0.3-0.2-1l-1-11l1.9-1.6
			c0.1-0.1,0.2-0.2,0.3-0.2c0.1,0,0.1,0.1,0.1,0.2V127.6z"/>
		<g>
			<polygon class="st1" points="26.1,132.1 27.4,133.4 28.6,132.1 27.3,130.8 			"/>
			<path class="st1" d="M29,127.5c0.4-0.7,0.6-1.6,0.6-2.6c0-0.5-0.1-1-0.3-1.6c-0.2-0.6-0.5-1.1-0.8-1.4c-0.1-0.1-0.2-0.1-0.3,0.1
				l-1.2,1.7c-0.1,0.1-0.1,0.2,0,0.3c0.8,0.9,1.2,1.4,1.2,1.8c0,0.4-0.5,0.6-1.5,0.6H26h-0.5h-0.4c-0.9,0-1.8-0.7-2.9-2.1
				c-0.1-0.1-0.2-0.1-0.2,0l-1.1,2.2c0.4,0.4,0.8,0.8,1.2,1.2c0.5,0.6,0.7,1,0.7,1.4c0,0.7-0.7,1.6-2,2.6c-1.2,0.9-2.4,1.6-3.7,2
				c-0.2,0.1-0.2,0.1,0,0.2c0.9,0.4,2.3,0.5,4.1,0.5c0.1,0,0.4-0.2,0.7-0.6c1.3-1.2,1.9-2.9,1.9-5c0.4,0.2,0.9,0.3,1.5,0.3v0h0.1H26
				h0.5C27.6,129,28.5,128.5,29,127.5z"/>
			<polygon class="st1" points="30.2,130.8 28.9,132.1 30.2,133.4 31.5,132.1 			"/>
		</g>
		<path class="st1" d="M35.4,127.6c0,0.5-0.3,1.3-0.8,2.4c-0.1,0.3-0.2,0.4-0.3,0.4c-0.1,0-0.2-0.3-0.2-1l-1-11l1.9-1.6
			c0.1-0.1,0.2-0.2,0.3-0.2c0.1,0,0.1,0.1,0.1,0.2V127.6z"/>
		<path class="st1" d="M50.8,123.9c0,0.2,0.1,0.3,0.1,0.4c0,0.1,0,0.2-0.1,0.2c0,0-0.1,0-0.3-0.1c-0.4-0.2-0.9-0.3-1.7-0.3
			c-0.9,0-1.6,0.3-2.3,0.9c-0.5,0.5-0.7,0.8-0.7,1.1c0,0.3,0.3,0.6,0.8,0.7c0.3,0.1,0.8,0.2,1.6,0.3c0.7,0.1,1.2,0.3,1.5,0.5
			c0.4,0.3,0.6,0.9,0.6,1.6c0,1.9-0.8,3.3-2.5,4.1c-1.1,0.5-2.6,0.8-4.4,0.8c-3.3,0-5-1.4-5-4.1c0-0.5,0.2-1.3,0.5-2.4
			c0.4-1.2,0.8-1.8,1.2-1.8c0.3,0,0.4,0.2,0.4,0.6c0,0.1-0.1,0.5-0.3,1.1c-0.2,0.6-0.3,1.1-0.3,1.4c0,1.8,1.3,2.6,4,2.6
			c1.1,0,2.2-0.1,3.2-0.3c1.4-0.3,2.1-0.7,2.1-1.3c0-0.3-0.4-0.5-1.2-0.6c-1.2-0.1-1.9-0.3-2.2-0.4c-0.8-0.3-1.2-0.9-1.2-1.7
			c0-0.9,0.4-2,1.2-3.3c0.9-1.4,1.9-2.1,2.9-2.1c0.7,0,1.2,0.3,1.7,0.9C50.5,123.1,50.7,123.5,50.8,123.9z"/>
		<path class="st1" d="M62.3,119.7C62.3,119.7,62.4,119.7,62.3,119.7c0,0.1,0,0.1-0.1,0.1c-0.1,0-0.4,0-0.7-0.1
			c0,1.8-0.3,3.3-0.9,4.6c-0.4,0.8-0.7,1.4-1.2,1.7c0.5,0.8,0.7,1.4,0.7,2c0,1-0.4,1.8-1.1,2.1c-0.5,0.3-1.6,0.4-3.3,0.4
			c-0.6,0-1,0-1.4-0.1l0.8-2.5c1-0.4,1.8-1.1,2.6-1.8c-1-1.3-2.2-2.6-3.7-4c-0.2,0.5-0.2,0.7-0.3,0.8c0,0-0.1-0.1-0.1-0.1
			c-1.1-1.4-1.6-2.2-1.6-2.4c0-0.5,0.2-1.2,0.5-2.3c0-0.1,0.1-0.2,0.1-0.2c0,0,0.1,0,0.2,0.1c1.3,1,3.3,3.3,6,6.9
			c0.5-0.5,0.8-1.3,0.8-2.5v-1.9c0-0.5-0.1-1.1-0.3-1.9l1.7-1.7c0.1-0.1,0.1-0.1,0.2,0.1C61.6,117.9,61.9,118.8,62.3,119.7z
			 M59,128.1c-0.1-0.4-0.3-0.7-0.6-1c-0.6,0.5-1.1,0.9-1.6,1.2c0.3,0.1,0.6,0.1,1.1,0.1C58.4,128.3,58.8,128.2,59,128.1z"/>
		<path class="st1" d="M77,117c-3.4,1.2-5.9,2.1-7.4,2.8l-0.5,2.7c0.7,0.4,1.4,1.1,2.2,1.9c0.9,0.9,1.3,1.6,1.3,2.1
			c0,0.3-0.2,0.5-0.6,0.6c-0.5,0.1-1.5,0.2-3,0.2h-0.8v0h-0.1c-1.1,0-1.7-0.5-1.7-1.5v-8.8c0-0.2,0-0.3-0.1-0.3l0,0
			c0,0-0.2,0.1-0.4,0.2l-1.7,1.4c-0.1,0.1-0.1,0.2,0,0.4c0.1,0.6,0.2,1.9,0.3,3.8c0.1,1.7,0.2,3,0.2,3.9c0,1.3,0.3,2.2,1,2.8
			c0.5,0.5,1.1,0.7,1.8,0.7h0.7h0.6h0.6c2.9,0,4.4-1.3,4.4-4c0-0.8-0.3-1.6-0.8-2.5c-0.4-0.6-1-1.3-1.9-2.2c2.6-0.9,4.4-1.5,5.5-1.9
			L77,117z"/>
		<path class="st1" d="M95.5,125c0,1-0.2,1.8-0.6,2.6c-0.5,0.9-1.2,1.4-2.1,1.4c-0.8,0-1.5-0.4-2-1.3c-0.5,0.9-1.1,1.3-1.8,1.3
			c-0.2,0-0.5-0.1-0.8-0.2c0,0.4,0.1,0.7,0.1,1c0,1.7-0.6,2.9-1.9,3.7c-1.1,0.7-2.5,1-4.3,1c-1.6,0-2.8-0.4-3.6-1.3
			c-0.6-0.7-0.9-1.6-0.9-2.7c0-0.5,0.2-1.3,0.5-2.4c0.4-1.2,0.8-1.8,1.2-1.8c0.3,0,0.4,0.2,0.4,0.6c0,0.1-0.1,0.5-0.3,1.1
			c-0.2,0.6-0.3,1.1-0.3,1.4c0,1,0.4,1.7,1.2,2.1c0.6,0.3,1.4,0.4,2.5,0.4c1.1,0,2.1-0.2,3-0.5c1-0.4,1.5-0.9,1.5-1.5
			c0-0.4-0.3-1-0.9-1.8c-0.5-0.7-1-1.2-1.4-1.6l1-2.1c0.1-0.2,0.2-0.2,0.3,0c0.9,1.3,1.7,1.9,2.6,1.9c0.5,0,0.9-0.2,1.1-0.6
			c0-0.1,0.2-0.5,0.3-1.2c0.1-0.4,0.3-0.6,0.5-0.6c0.2,0,0.4,0.2,0.5,0.6c0.1,0.6,0.3,1,0.4,1.2c0.3,0.4,0.7,0.6,1.4,0.6
			c0.8,0,1.2-0.3,1.2-0.9c0-0.3-0.3-0.8-0.9-1.6l0.9-1.5c0.1-0.2,0.2-0.3,0.2-0.3c0,0,0.1,0.1,0.2,0.2c0.2,0.2,0.3,0.6,0.5,1
			C95.4,124,95.5,124.5,95.5,125z"/>
		<path class="st1" d="M101.7,128.2c0,2-0.7,3.7-2,5c-0.4,0.4-0.7,0.6-0.7,0.6c-1.9,0-2.3-0.2-3.2-0.5c-0.2-0.1-0.2-0.1,0-0.2
			c1.3-0.5,1.6-1.1,2.7-2c1.3-1,1.9-1.9,1.9-2.7c0-0.3-0.2-0.8-0.7-1.4c-0.4-0.5-0.8-0.9-1.2-1.2l1-2.1c0.1-0.1,0.1-0.1,0.2,0
			C101.1,125,101.7,126.5,101.7,128.2z"/>
		<g>
			<path class="st1" d="M114.5,127.5c0.4-0.7,0.6-1.6,0.6-2.6c0-0.5-0.1-1-0.3-1.6c-0.2-0.6-0.5-1.1-0.8-1.4
				c-0.1-0.1-0.2-0.1-0.3,0.1l-1.2,1.7c-0.1,0.1-0.1,0.2,0,0.3c0.8,0.9,1.2,1.4,1.2,1.8c0,0.4-0.5,0.6-1.5,0.6h-0.6H111h-1.3
				c-0.1-0.9-0.4-1.7-0.8-2.3c-0.5-0.8-1.2-1.2-1.9-1.2c-0.8,0-1.4,0.6-2,1.7c-0.5,0.9-0.7,1.8-0.7,2.5c0,0.8,0.3,1.4,0.9,1.6
				c0.4,0.2,1.1,0.3,2,0.3h0.7h0.7c0,0.7-0.6,1.5-1.9,2.5c-1.2,1-2.4,1.6-3.6,2.1c-0.2,0.1-0.2,0.1,0,0.2c1,0.4,2.4,0.5,4.1,0.5
				c0.1,0,0.3-0.2,0.7-0.6c1.2-1.3,1.8-2.9,1.8-4.6h1.3h0.6h0.4C113.2,129,114,128.5,114.5,127.5z M106.8,126.4
				c-0.8,0-1.2-0.2-1.2-0.7c0-0.2,0.1-0.4,0.3-0.5c0.2-0.2,0.4-0.2,0.6-0.2c0.2,0,0.5,0.1,0.8,0.3c0.4,0.3,0.7,0.6,0.9,1.1
				C107.7,126.4,107.2,126.4,106.8,126.4z"/>
			
				<rect x="112.3" y="131.2" transform="matrix(0.7073 -0.7069 0.7069 0.7073 -60.2874 118.7919)" class="st1" width="2" height="2"/>
		</g>
	</g>
</g>
<g>
	<g>
		<path class="st2" d="M2.6,144.9H1.8V138h0.7V144.9z"/>
		<path class="st2" d="M4,139.8h0.7v0.9c0.4-0.6,0.9-0.9,1.6-0.9h0.2v0.6H6.2c-0.5,0-0.8,0.2-1.1,0.5c-0.3,0.3-0.4,0.8-0.4,1.3v2.6
			H4V139.8z"/>
		<path class="st2" d="M8,141.2H7.3c0-0.2,0.1-0.5,0.2-0.7c0.1-0.2,0.3-0.4,0.4-0.5c0.2-0.1,0.4-0.2,0.6-0.3
			c0.2-0.1,0.4-0.1,0.7-0.1c0.2,0,0.5,0,0.7,0.1c0.2,0.1,0.4,0.2,0.6,0.3c0.2,0.1,0.3,0.3,0.4,0.5c0.1,0.2,0.2,0.4,0.2,0.7v2.1
			c0,0.7,0.1,1.2,0.2,1.6h-0.7c-0.1-0.2-0.1-0.4-0.1-0.6c-0.2,0.2-0.4,0.4-0.7,0.5C9.3,144.9,9,145,8.7,145c-0.5,0-0.8-0.1-1.1-0.4
			c-0.3-0.3-0.4-0.6-0.4-1c0-0.2,0-0.5,0.1-0.6c0.1-0.2,0.2-0.3,0.4-0.5c0.2-0.1,0.4-0.2,0.6-0.3c0.2-0.1,0.4-0.1,0.7-0.2
			s0.5,0,0.7,0c0.2,0,0.4,0,0.6,0v-0.8c0-0.3-0.1-0.5-0.3-0.7c-0.2-0.2-0.5-0.2-0.8-0.2c-0.3,0-0.6,0.1-0.8,0.2
			C8.1,140.7,8,140.9,8,141.2z M10.3,143v-0.6c-0.2,0-0.4,0-0.6,0c-0.3,0-0.6,0-0.8,0.1c-0.3,0.1-0.5,0.2-0.7,0.4
			c-0.2,0.2-0.3,0.4-0.3,0.6c0,0.2,0.1,0.4,0.3,0.6c0.2,0.1,0.4,0.2,0.7,0.2c0.4,0,0.8-0.1,1-0.3C10.1,143.8,10.3,143.5,10.3,143z"
			/>
		<path class="st2" d="M13.1,144.9h-0.7v-5.1h0.7v0.8c0.2-0.3,0.4-0.5,0.6-0.7c0.3-0.2,0.5-0.2,0.9-0.2c0.3,0,0.5,0,0.7,0.1
			c0.2,0.1,0.4,0.2,0.5,0.3c0.1,0.1,0.2,0.3,0.3,0.4c0.1,0.2,0.2,0.3,0.2,0.5c0,0.2,0.1,0.3,0.1,0.4v3.4h-0.7v-3.1
			c0-0.5-0.1-0.9-0.3-1.1c-0.2-0.2-0.5-0.3-0.9-0.3c-0.4,0-0.7,0.1-0.9,0.4c-0.2,0.3-0.4,0.6-0.4,1.1V144.9z"/>
		<path class="st2" d="M22.8,144.9h-0.7V138h0.9l2.6,6.1l2.8-6.1h0.8v6.9h-0.7v-5.6l-2.6,5.6h-0.7l-2.3-5.5V144.9z"/>
		<path class="st2" d="M31,142.6c0.1,0.6,0.2,1,0.6,1.3c0.3,0.3,0.7,0.4,1.2,0.4c0.5,0,1-0.1,1.6-0.4l0.2,0.5
			c-0.6,0.3-1.2,0.5-1.9,0.5c-0.5,0-0.9-0.1-1.3-0.3c-0.4-0.2-0.7-0.5-0.9-0.9c-0.2-0.4-0.3-0.9-0.3-1.4c0-0.3,0-0.6,0.1-1
			c0.1-0.3,0.2-0.6,0.4-0.8c0.2-0.3,0.4-0.5,0.7-0.6c0.3-0.2,0.6-0.2,1-0.2c0.3,0,0.6,0.1,0.9,0.2c0.3,0.1,0.5,0.2,0.7,0.4
			c0.2,0.2,0.3,0.4,0.5,0.6c0.1,0.2,0.2,0.5,0.3,0.7c0.1,0.3,0.1,0.5,0.1,0.8v0.3H31z M31,142h3.1c-0.1-0.5-0.2-0.9-0.5-1.2
			c-0.3-0.3-0.6-0.5-1.1-0.5c-0.4,0-0.8,0.2-1.1,0.5C31.2,141.1,31.1,141.5,31,142z"/>
		<path class="st2" d="M36,139.8h0.7v0.9c0.4-0.6,0.9-0.9,1.6-0.9h0.2v0.6h-0.4c-0.5,0-0.8,0.2-1.1,0.5c-0.3,0.3-0.4,0.8-0.4,1.3
			v2.6H36V139.8z"/>
		<path class="st2" d="M43.5,140.8l-0.7,0.3c-0.3-0.5-0.7-0.7-1.3-0.7c-0.5,0-0.9,0.2-1.1,0.6c-0.3,0.4-0.4,0.9-0.4,1.4
			c0,0.6,0.1,1.1,0.4,1.4c0.3,0.4,0.7,0.6,1.1,0.6c0.6,0,1-0.2,1.3-0.7l0.7,0.3c-0.2,0.3-0.4,0.6-0.8,0.8c-0.3,0.2-0.7,0.3-1.2,0.3
			c-0.3,0-0.6-0.1-0.9-0.2c-0.3-0.1-0.5-0.2-0.6-0.4c-0.2-0.2-0.3-0.4-0.4-0.6c-0.1-0.2-0.2-0.5-0.3-0.7c-0.1-0.2-0.1-0.5-0.1-0.8
			c0-0.3,0-0.6,0.1-1c0.1-0.3,0.2-0.6,0.4-0.8c0.2-0.3,0.4-0.5,0.7-0.6c0.3-0.2,0.6-0.2,1-0.2c0.4,0,0.8,0.1,1.2,0.3
			C43,140.2,43.3,140.4,43.5,140.8z"/>
		<path class="st2" d="M45.1,141.2h-0.7c0-0.2,0.1-0.5,0.2-0.7c0.1-0.2,0.3-0.4,0.4-0.5c0.2-0.1,0.4-0.2,0.6-0.3
			c0.2-0.1,0.4-0.1,0.7-0.1c0.2,0,0.5,0,0.7,0.1c0.2,0.1,0.4,0.2,0.6,0.3c0.2,0.1,0.3,0.3,0.4,0.5c0.1,0.2,0.2,0.4,0.2,0.7v2.1
			c0,0.7,0.1,1.2,0.2,1.6h-0.7c-0.1-0.2-0.1-0.4-0.1-0.6c-0.2,0.2-0.4,0.4-0.7,0.5c-0.3,0.1-0.6,0.2-0.9,0.2c-0.5,0-0.8-0.1-1.1-0.4
			c-0.3-0.3-0.4-0.6-0.4-1c0-0.2,0-0.5,0.1-0.6c0.1-0.2,0.2-0.3,0.4-0.5c0.2-0.1,0.4-0.2,0.6-0.3c0.2-0.1,0.4-0.1,0.7-0.2
			c0.2,0,0.5,0,0.7,0c0.2,0,0.4,0,0.6,0v-0.8c0-0.3-0.1-0.5-0.3-0.7c-0.2-0.2-0.5-0.2-0.8-0.2c-0.3,0-0.6,0.1-0.8,0.2
			C45.2,140.7,45.1,140.9,45.1,141.2z M47.3,143v-0.6c-0.2,0-0.4,0-0.6,0c-0.3,0-0.6,0-0.8,0.1c-0.3,0.1-0.5,0.2-0.7,0.4
			c-0.2,0.2-0.3,0.4-0.3,0.6c0,0.2,0.1,0.4,0.3,0.6c0.2,0.1,0.4,0.2,0.7,0.2c0.4,0,0.8-0.1,1-0.3C47.2,143.8,47.3,143.5,47.3,143z"
			/>
		<path class="st2" d="M50.2,144.9h-0.7v-5.1h0.7v0.8c0.2-0.3,0.4-0.5,0.6-0.7c0.3-0.2,0.5-0.2,0.9-0.2c0.3,0,0.5,0,0.7,0.1
			c0.2,0.1,0.4,0.2,0.5,0.3c0.1,0.1,0.2,0.3,0.3,0.4c0.1,0.2,0.2,0.3,0.2,0.5c0,0.2,0.1,0.3,0.1,0.4v3.4h-0.7v-3.1
			c0-0.5-0.1-0.9-0.3-1.1c-0.2-0.2-0.5-0.3-0.9-0.3c-0.4,0-0.7,0.1-0.9,0.4c-0.2,0.3-0.4,0.6-0.4,1.1V144.9z"/>
		<path class="st2" d="M57.4,144.2v0.6h-0.8c-0.4,0-0.6-0.1-0.9-0.4c-0.2-0.2-0.3-0.5-0.3-0.8v-3.3h-0.7v-0.5h0.7v-1.2h0.7v1.2h1.4
			v0.5h-1.4v3.3c0,0.2,0.1,0.3,0.2,0.4s0.2,0.1,0.3,0.1H57.4z"/>
		<path class="st2" d="M58.9,138.6c-0.1-0.1-0.2-0.2-0.2-0.4c0-0.1,0.1-0.3,0.2-0.4c0.1-0.1,0.2-0.1,0.4-0.1c0.1,0,0.3,0,0.4,0.1
			c0.1,0.1,0.2,0.2,0.2,0.4c0,0.1-0.1,0.3-0.2,0.4c-0.1,0.1-0.2,0.2-0.4,0.2C59.1,138.8,59,138.7,58.9,138.6z M58.9,139.8h0.7v5.1
			h-0.7V139.8z"/>
		<path class="st2" d="M61.9,144.9h-0.7V138h0.7V144.9z"/>
		<path class="st2" d="M63.7,142.6c0.1,0.6,0.2,1,0.6,1.3c0.3,0.3,0.7,0.4,1.2,0.4c0.5,0,1-0.1,1.6-0.4l0.2,0.5
			c-0.6,0.3-1.2,0.5-1.9,0.5c-0.5,0-0.9-0.1-1.3-0.3c-0.4-0.2-0.7-0.5-0.9-0.9c-0.2-0.4-0.3-0.9-0.3-1.4c0-0.3,0-0.6,0.1-1
			c0.1-0.3,0.2-0.6,0.4-0.8c0.2-0.3,0.4-0.5,0.7-0.6c0.3-0.2,0.6-0.2,1-0.2c0.3,0,0.6,0.1,0.9,0.2c0.3,0.1,0.5,0.2,0.7,0.4
			c0.2,0.2,0.3,0.4,0.5,0.6c0.1,0.2,0.2,0.5,0.3,0.7c0.1,0.3,0.1,0.5,0.1,0.8v0.3H63.7z M63.7,142h3.1c-0.1-0.5-0.2-0.9-0.5-1.2
			c-0.3-0.3-0.6-0.5-1.1-0.5c-0.4,0-0.8,0.2-1.1,0.5C63.9,141.1,63.8,141.5,63.7,142z"/>
		<path class="st2" d="M77.1,144.2v0.6h-4.2V138h4.2v0.6h-3.4v2.5h3.4v0.6h-3.4v2.5H77.1z"/>
		<path class="st2" d="M82.3,139.8h0.9l-2.1,2.6l2,2.5h-0.9l-1.6-2.1l-1.6,2.1h-0.9l2-2.5l-2.1-2.6h0.9l1.7,2.2L82.3,139.8z"/>
		<path class="st2" d="M87.9,140.8l-0.7,0.3c-0.3-0.5-0.7-0.7-1.3-0.7c-0.5,0-0.9,0.2-1.1,0.6c-0.3,0.4-0.4,0.9-0.4,1.4
			c0,0.6,0.1,1.1,0.4,1.4c0.3,0.4,0.7,0.6,1.1,0.6c0.6,0,1-0.2,1.3-0.7l0.7,0.3c-0.2,0.3-0.4,0.6-0.8,0.8c-0.3,0.2-0.7,0.3-1.2,0.3
			c-0.3,0-0.6-0.1-0.9-0.2c-0.3-0.1-0.5-0.2-0.6-0.4c-0.2-0.2-0.3-0.4-0.4-0.6c-0.1-0.2-0.2-0.5-0.3-0.7c-0.1-0.2-0.1-0.5-0.1-0.8
			c0-0.3,0-0.6,0.1-1c0.1-0.3,0.2-0.6,0.4-0.8c0.2-0.3,0.4-0.5,0.7-0.6c0.3-0.2,0.6-0.2,1-0.2c0.4,0,0.8,0.1,1.2,0.3
			C87.5,140.2,87.7,140.4,87.9,140.8z"/>
		<path class="st2" d="M90,144.9h-0.7V138H90v2.6c0.2-0.3,0.4-0.5,0.6-0.7c0.3-0.2,0.5-0.2,0.9-0.2c0.3,0,0.5,0,0.7,0.1
			c0.2,0.1,0.4,0.2,0.5,0.3c0.1,0.1,0.2,0.3,0.3,0.4c0.1,0.2,0.2,0.3,0.2,0.5c0,0.2,0.1,0.3,0.1,0.4v3.4h-0.7v-3.1
			c0-0.5-0.1-0.9-0.3-1.1c-0.2-0.2-0.5-0.3-0.9-0.3c-0.4,0-0.7,0.1-0.9,0.4c-0.2,0.3-0.4,0.6-0.4,1.1V144.9z"/>
		<path class="st2" d="M95.4,141.2h-0.7c0-0.2,0.1-0.5,0.2-0.7c0.1-0.2,0.3-0.4,0.4-0.5c0.2-0.1,0.4-0.2,0.6-0.3
			c0.2-0.1,0.4-0.1,0.7-0.1c0.2,0,0.5,0,0.7,0.1c0.2,0.1,0.4,0.2,0.6,0.3c0.2,0.1,0.3,0.3,0.4,0.5c0.1,0.2,0.2,0.4,0.2,0.7v2.1
			c0,0.7,0.1,1.2,0.2,1.6h-0.7c-0.1-0.2-0.1-0.4-0.1-0.6c-0.2,0.2-0.4,0.4-0.7,0.5c-0.3,0.1-0.6,0.2-0.9,0.2c-0.5,0-0.8-0.1-1.1-0.4
			c-0.3-0.3-0.4-0.6-0.4-1c0-0.2,0-0.5,0.1-0.6c0.1-0.2,0.2-0.3,0.4-0.5c0.2-0.1,0.4-0.2,0.6-0.3c0.2-0.1,0.4-0.1,0.7-0.2
			s0.5,0,0.7,0c0.2,0,0.4,0,0.6,0v-0.8c0-0.3-0.1-0.5-0.3-0.7c-0.2-0.2-0.5-0.2-0.8-0.2c-0.3,0-0.6,0.1-0.8,0.2
			C95.5,140.7,95.4,140.9,95.4,141.2z M97.7,143v-0.6c-0.2,0-0.4,0-0.6,0c-0.3,0-0.6,0-0.8,0.1c-0.3,0.1-0.5,0.2-0.7,0.4
			c-0.2,0.2-0.3,0.4-0.3,0.6c0,0.2,0.1,0.4,0.3,0.6c0.2,0.1,0.4,0.2,0.7,0.2c0.4,0,0.8-0.1,1-0.3C97.5,143.8,97.7,143.5,97.7,143z"
			/>
		<path class="st2" d="M100.5,144.9h-0.7v-5.1h0.7v0.8c0.2-0.3,0.4-0.5,0.6-0.7c0.3-0.2,0.5-0.2,0.9-0.2c0.3,0,0.5,0,0.7,0.1
			c0.2,0.1,0.4,0.2,0.5,0.3c0.1,0.1,0.2,0.3,0.3,0.4c0.1,0.2,0.2,0.3,0.2,0.5c0,0.2,0.1,0.3,0.1,0.4v3.4h-0.7v-3.1
			c0-0.5-0.1-0.9-0.3-1.1c-0.2-0.2-0.5-0.3-0.9-0.3c-0.4,0-0.7,0.1-0.9,0.4c-0.2,0.3-0.4,0.6-0.4,1.1V144.9z"/>
		<path class="st2" d="M108.7,139.8h0.7v4.8c0,0.4-0.1,0.8-0.2,1.1c-0.1,0.3-0.3,0.6-0.5,0.8c-0.2,0.2-0.5,0.3-0.8,0.4
			c-0.3,0.1-0.6,0.1-0.9,0.1c-0.7,0-1.4-0.2-2-0.6l0.3-0.6c0.6,0.3,1.2,0.5,1.8,0.5c0.2,0,0.4,0,0.6-0.1c0.2-0.1,0.4-0.2,0.5-0.3
			c0.2-0.1,0.3-0.3,0.4-0.6c0.1-0.2,0.1-0.5,0.1-0.8v-0.7c-0.2,0.3-0.4,0.6-0.7,0.8c-0.3,0.2-0.6,0.3-1,0.3c-0.3,0-0.6-0.1-0.8-0.2
			c-0.2-0.1-0.4-0.2-0.6-0.4c-0.2-0.2-0.3-0.4-0.4-0.6c-0.1-0.2-0.2-0.5-0.2-0.7c0-0.2-0.1-0.5-0.1-0.8s0-0.5,0.1-0.8
			c0-0.2,0.1-0.5,0.2-0.7c0.1-0.2,0.2-0.4,0.4-0.6c0.2-0.2,0.4-0.3,0.6-0.4c0.2-0.1,0.5-0.2,0.8-0.2c0.4,0,0.8,0.1,1,0.3
			c0.3,0.2,0.5,0.5,0.7,0.8V139.8z M108.3,143.8c0.3-0.4,0.4-0.9,0.4-1.4s-0.1-1.1-0.4-1.4c-0.3-0.4-0.7-0.6-1.1-0.6
			s-0.9,0.2-1.1,0.6c-0.3,0.4-0.4,0.9-0.4,1.4s0.1,1.1,0.4,1.4c0.3,0.4,0.7,0.6,1.1,0.6S108,144.1,108.3,143.8z"/>
		<path class="st2" d="M111.2,142.6c0.1,0.6,0.2,1,0.6,1.3c0.3,0.3,0.7,0.4,1.2,0.4c0.5,0,1-0.1,1.6-0.4l0.2,0.5
			c-0.6,0.3-1.2,0.5-1.9,0.5c-0.5,0-0.9-0.1-1.3-0.3c-0.4-0.2-0.7-0.5-0.9-0.9c-0.2-0.4-0.3-0.9-0.3-1.4c0-0.3,0-0.6,0.1-1
			c0.1-0.3,0.2-0.6,0.4-0.8c0.2-0.3,0.4-0.5,0.7-0.6c0.3-0.2,0.6-0.2,1-0.2c0.3,0,0.6,0.1,0.9,0.2c0.3,0.1,0.5,0.2,0.7,0.4
			c0.2,0.2,0.3,0.4,0.5,0.6c0.1,0.2,0.2,0.5,0.3,0.7c0.1,0.3,0.1,0.5,0.1,0.8v0.3H111.2z M111.2,142h3.1c-0.1-0.5-0.2-0.9-0.5-1.2
			c-0.3-0.3-0.6-0.5-1.1-0.5c-0.4,0-0.8,0.2-1.1,0.5C111.5,141.1,111.3,141.5,111.2,142z"/>
	</g>
</g>
</svg>
