<?xml version="1.0" encoding="utf-8"?>
<!-- Generator: Adobe Illustrator 23.0.6, SVG Export Plug-In . SVG Version: 6.00 Build 0)  -->
<svg version="1.1" id="Layer_1" xmlns="http://www.w3.org/2000/svg" xmlns:xlink="http://www.w3.org/1999/xlink" x="0px" y="0px"
	 viewBox="0 0 164.8 19.8" style="enable-background:new 0 0 164.8 19.8;" xml:space="preserve">
<style type="text/css">
	.st0{fill:#CED7E4;}
	.st1{fill:#1375B2;}
</style>
<g>
	<path class="st0" d="M12.8,14c0,2.2-0.7,3.7-2,4.6c-1.1,0.7-2.8,1.1-5.2,1.1c-1.8,0-3.1-0.5-3.9-1.5c-0.7-0.8-1-1.8-1-2.9
		c0-0.6,0.2-1.5,0.5-2.6c0.4-1.3,0.9-2,1.3-2c0.3,0,0.5,0.2,0.5,0.6c0,0.1-0.1,0.5-0.3,1.2c-0.2,0.7-0.3,1.2-0.3,1.6
		c0,1.1,0.4,1.8,1.3,2.3c0.6,0.3,1.5,0.5,2.8,0.5c1.1,0,2.2-0.1,3.1-0.4c1.4-0.4,2.1-1,2.1-1.8c0-0.4-0.3-1.1-0.9-2
		c-0.5-0.8-1-1.4-1.4-1.8l1.2-2.5c0.1-0.2,0.2-0.2,0.3,0C12.1,10.4,12.8,12.3,12.8,14z M8.1,6.9L6.5,8.4L5,6.9l1.6-1.5L8.1,6.9z"/>
	<path class="st0" d="M17.3,12.1c0,0.5-0.3,1.4-0.9,2.6c-0.2,0.3-0.3,0.5-0.3,0.5c-0.1,0-0.2-0.4-0.2-1.1L14.8,2.1l2.1-1.7
		c0.1-0.1,0.2-0.2,0.3-0.2c0.1,0,0.1,0.1,0.1,0.2V12.1z"/>
	<g>
		<polygon class="st0" points="27.3,17 28.7,18.4 30.1,17 28.7,15.6 		"/>
		<path class="st0" d="M30.5,12c0.4-0.8,0.7-1.7,0.7-2.9c0-0.5-0.1-1.1-0.3-1.8c-0.2-0.7-0.5-1.2-0.9-1.6c-0.1-0.1-0.2-0.1-0.3,0.1
			l-1.3,1.9c-0.1,0.1-0.1,0.3,0,0.4c0.9,0.9,1.3,1.6,1.3,1.9c0,0.4-0.5,0.6-1.6,0.6h-0.7h-0.6h-0.4c-1,0-2-0.8-3.2-2.3
			c-0.1-0.1-0.2-0.1-0.3,0l-1.2,2.4c0.5,0.4,0.9,0.8,1.3,1.3c0.5,0.6,0.8,1.1,0.8,1.5c0,0.8-0.7,1.7-2.2,2.8c-1.3,1-2.6,1.7-4,2.2
			c-0.2,0.1-0.2,0.1,0,0.2c1,0.4,2.5,0.6,4.6,0.6c0.1,0,0.4-0.2,0.8-0.6c1.4-1.4,2.1-3.2,2.1-5.5c0.4,0.2,0.9,0.3,1.6,0.3v0h0.1h0.5
			h0.5C29,13.6,29.9,13.1,30.5,12z"/>
		<polygon class="st0" points="31.8,15.6 30.4,17 31.8,18.4 33.2,17 		"/>
	</g>
	<path class="st0" d="M37.6,12.1c0,0.5-0.3,1.4-0.9,2.6c-0.2,0.3-0.3,0.5-0.3,0.5c-0.1,0-0.2-0.4-0.2-1.1L35.1,2.1l2.1-1.7
		c0.1-0.1,0.2-0.2,0.3-0.2c0.1,0,0.1,0.1,0.1,0.2V12.1z"/>
	<path class="st0" d="M54.4,8c0,0.2,0.1,0.4,0.1,0.5c0,0.1,0,0.2-0.1,0.2c-0.1,0-0.2,0-0.3-0.1c-0.4-0.2-1-0.3-1.9-0.3
		c-1,0-1.8,0.3-2.5,1c-0.5,0.5-0.8,0.9-0.8,1.2c0,0.4,0.3,0.6,0.9,0.8c0.3,0.1,0.9,0.2,1.8,0.3c0.8,0.1,1.3,0.3,1.6,0.5
		c0.4,0.3,0.7,0.9,0.7,1.8c0,2.1-0.9,3.6-2.8,4.5c-1.2,0.6-2.9,0.9-4.8,0.9c-3.6,0-5.4-1.5-5.4-4.5c0-0.6,0.2-1.5,0.5-2.6
		c0.4-1.3,0.9-2,1.3-2c0.3,0,0.5,0.2,0.5,0.6c0,0.1-0.1,0.5-0.3,1.2c-0.2,0.7-0.3,1.2-0.3,1.6c0,1.9,1.4,2.9,4.3,2.9
		c1.2,0,2.4-0.1,3.5-0.4c1.5-0.3,2.3-0.8,2.3-1.4c0-0.3-0.4-0.6-1.3-0.7c-1.3-0.2-2.1-0.3-2.5-0.4c-0.9-0.3-1.3-1-1.3-1.9
		c0-1,0.4-2.2,1.3-3.6c1-1.5,2.1-2.3,3.2-2.3c0.7,0,1.4,0.3,1.9,1C54.1,7.2,54.3,7.6,54.4,8z"/>
	<path class="st0" d="M67.1,3.4C67.1,3.4,67.1,3.4,67.1,3.4c0,0.1,0,0.1-0.1,0.1c-0.2,0-0.4,0-0.8-0.1c0,2-0.3,3.7-0.9,5.1
		c-0.4,0.9-0.8,1.5-1.3,1.9c0.5,0.9,0.8,1.6,0.8,2.2c0,1.1-0.4,1.9-1.2,2.4c-0.6,0.3-1.7,0.4-3.6,0.4c-0.6,0-1.1,0-1.6-0.1l0.9-2.8
		c1.1-0.5,2-1.2,2.8-2C61,9,59.6,7.6,57.9,6c-0.2,0.5-0.3,0.8-0.3,0.8c0,0-0.1-0.1-0.1-0.1c-1.2-1.5-1.8-2.4-1.8-2.6
		c0-0.5,0.2-1.3,0.5-2.5c0-0.1,0.1-0.2,0.1-0.2c0,0,0.1,0,0.2,0.1c1.4,1.1,3.6,3.6,6.6,7.6c0.6-0.5,0.9-1.5,0.9-2.8V4.2
		c0-0.5-0.1-1.2-0.3-2.1l1.9-1.9c0.1-0.1,0.1-0.1,0.2,0.1C66.3,1.4,66.7,2.5,67.1,3.4z M63.5,12.6c-0.1-0.4-0.3-0.8-0.7-1.1
		c-0.6,0.5-1.2,0.9-1.8,1.3c0.3,0.1,0.7,0.1,1.2,0.1C62.8,12.8,63.2,12.8,63.5,12.6z"/>
	<path class="st0" d="M83.2,0.5c-3.7,1.3-6.4,2.4-8.2,3.1l-0.6,2.9c0.7,0.5,1.5,1.2,2.4,2.1c0.9,1,1.4,1.8,1.4,2.3
		c0,0.3-0.2,0.5-0.7,0.6c-0.6,0.1-1.6,0.2-3.3,0.2h-0.9v0h-0.1c-1.2,0-1.8-0.5-1.8-1.6V0.5c0-0.2,0-0.3-0.1-0.3l0,0
		c0,0-0.2,0.1-0.4,0.3L69.3,2c-0.1,0.1-0.1,0.2,0,0.4c0.1,0.7,0.2,2.1,0.4,4.2c0.1,1.9,0.2,3.3,0.2,4.2c0,1.4,0.4,2.4,1.1,3.1
		c0.5,0.5,1.2,0.8,1.9,0.8h0.7h0.6h0.7c3.2,0,4.8-1.5,4.8-4.4c0-0.9-0.3-1.8-0.9-2.7c-0.4-0.6-1.1-1.4-2-2.4c2.8-1,4.8-1.7,6.1-2.1
		L83.2,0.5z"/>
	<path class="st0" d="M103.5,9.2c0,1.1-0.2,2-0.7,2.8c-0.5,1-1.3,1.5-2.3,1.5c-0.9,0-1.6-0.5-2.2-1.5c-0.5,1-1.2,1.5-2,1.5
		c-0.3,0-0.6-0.1-0.9-0.2c0.1,0.4,0.1,0.8,0.1,1.1c0,1.9-0.7,3.2-2.1,4.1c-1.2,0.7-2.7,1.1-4.7,1.1c-1.8,0-3.1-0.5-3.9-1.4
		c-0.7-0.8-1-1.8-1-2.9c0-0.6,0.2-1.5,0.5-2.6c0.4-1.3,0.9-2,1.3-2c0.3,0,0.5,0.2,0.5,0.6c0,0.1-0.1,0.5-0.3,1.2
		c-0.2,0.7-0.3,1.2-0.3,1.6c0,1.1,0.4,1.8,1.3,2.3c0.6,0.3,1.5,0.5,2.8,0.5c1.2,0,2.3-0.2,3.3-0.6c1.1-0.4,1.7-1,1.7-1.7
		c0-0.4-0.3-1.1-1-2c-0.6-0.8-1.1-1.4-1.5-1.8l1.1-2.3c0.1-0.2,0.2-0.2,0.3,0c1,1.4,1.9,2.1,2.8,2.1c0.6,0,1-0.2,1.2-0.7
		c0.1-0.1,0.2-0.5,0.4-1.3C97.9,8.2,98.1,8,98.4,8c0.3,0,0.4,0.2,0.5,0.7c0.1,0.7,0.3,1.1,0.4,1.3c0.3,0.5,0.8,0.7,1.5,0.7
		c0.9,0,1.3-0.3,1.3-1c0-0.3-0.3-0.9-1-1.7l1-1.6c0.1-0.2,0.2-0.3,0.2-0.3c0,0,0.1,0.1,0.2,0.2c0.2,0.2,0.4,0.6,0.6,1.1
		C103.4,8.1,103.5,8.7,103.5,9.2z"/>
	<path class="st0" d="M110.3,12.8c0,2.2-0.7,4-2.2,5.5c-0.4,0.5-0.7,0.7-0.8,0.7c-2,0-2.6-0.2-3.6-0.6c-0.2-0.1-0.2-0.2,0-0.2
		c1.4-0.5,1.7-1.2,3-2.2c1.4-1.1,2.1-2.1,2.1-3c0-0.4-0.3-0.9-0.8-1.5c-0.4-0.5-0.9-1-1.3-1.3l1.1-2.3c0.1-0.1,0.2-0.2,0.3,0
		C109.6,9.3,110.3,10.9,110.3,12.8z"/>
	<g>
		<path class="st0" d="M124.4,12c0.4-0.8,0.7-1.7,0.7-2.9c0-0.5-0.1-1.1-0.3-1.8c-0.2-0.7-0.5-1.2-0.9-1.6c-0.1-0.1-0.2-0.1-0.3,0.1
			l-1.3,1.9c-0.1,0.1-0.1,0.3,0,0.4c0.9,0.9,1.3,1.6,1.3,1.9c0,0.4-0.5,0.6-1.6,0.6h-0.7h-0.6h-1.4c-0.1-1-0.4-1.8-0.9-2.5
			c-0.6-0.9-1.3-1.4-2.1-1.4c-0.8,0-1.6,0.6-2.2,1.9c-0.5,1-0.8,2-0.8,2.8c0,0.9,0.3,1.5,0.9,1.8c0.5,0.2,1.2,0.4,2.2,0.3h0.8h0.8
			c0,0.7-0.7,1.7-2.1,2.8c-1.3,1.1-2.6,1.8-4,2.3c-0.2,0.1-0.2,0.1,0,0.2c1.1,0.4,2.6,0.6,4.6,0.6c0.1,0,0.4-0.2,0.8-0.7
			c1.3-1.5,2-3.2,2-5.1h1.4h0.6h0.5C122.9,13.6,123.8,13.1,124.4,12z M116,10.8c-0.9,0-1.3-0.3-1.3-0.8c0-0.2,0.1-0.4,0.3-0.6
			s0.4-0.3,0.7-0.3c0.3,0,0.6,0.1,0.9,0.3c0.4,0.3,0.8,0.7,1,1.2C116.9,10.8,116.4,10.8,116,10.8z"/>
		<rect x="122" y="16" transform="matrix(0.7073 -0.7069 0.7069 0.7073 23.904 92.0163)" class="st0" width="2.2" height="2.2"/>
	</g>
</g>
<g>
	<path class="st1" d="M12.5,13.6c0,2.2-0.7,3.7-2,4.6c-1.1,0.7-2.8,1.1-5.2,1.1c-1.8,0-3.1-0.5-3.9-1.5c-0.7-0.8-1-1.8-1-2.9
		c0-0.6,0.2-1.5,0.5-2.6c0.4-1.3,0.9-2,1.3-2c0.3,0,0.5,0.2,0.5,0.6c0,0.1-0.1,0.5-0.3,1.2C2.1,12.8,2,13.3,2,13.7
		c0,1.1,0.4,1.8,1.3,2.3c0.6,0.3,1.5,0.5,2.8,0.5c1.1,0,2.2-0.1,3.1-0.4c1.4-0.4,2.1-1,2.1-1.8c0-0.4-0.3-1.1-0.9-2
		c-0.5-0.8-1-1.4-1.4-1.8L10.2,8c0.1-0.2,0.2-0.2,0.3,0C11.8,9.9,12.5,11.8,12.5,13.6z M7.8,6.4L6.3,8L4.7,6.4l1.6-1.5L7.8,6.4z"/>
	<path class="st1" d="M17.1,11.6c0,0.5-0.3,1.4-0.9,2.6c-0.2,0.3-0.3,0.5-0.3,0.5c-0.1,0-0.2-0.4-0.2-1.1L14.6,1.6l2.1-1.7
		c0.1-0.1,0.2-0.2,0.3-0.2c0.1,0,0.1,0.1,0.1,0.2V11.6z"/>
	<g>
		<polygon class="st1" points="27,16.6 28.4,18 29.8,16.6 28.4,15.2 		"/>
		<path class="st1" d="M30.2,11.6c0.4-0.8,0.7-1.7,0.7-2.9c0-0.5-0.1-1.1-0.3-1.8c-0.2-0.7-0.5-1.2-0.9-1.6
			c-0.1-0.1-0.2-0.1-0.3,0.1L28,7.3c-0.1,0.1-0.1,0.3,0,0.4c0.9,0.9,1.3,1.6,1.3,1.9c0,0.4-0.5,0.6-1.6,0.6H27h-0.6H26
			c-1,0-2-0.8-3.2-2.3c-0.1-0.1-0.2-0.1-0.3,0l-1.2,2.4c0.5,0.4,0.9,0.8,1.3,1.3c0.5,0.6,0.8,1.1,0.8,1.5c0,0.8-0.7,1.7-2.2,2.8
			c-1.3,1-2.6,1.7-4,2.2c-0.2,0.1-0.2,0.1,0,0.2c1,0.4,2.5,0.6,4.6,0.6c0.1,0,0.4-0.2,0.8-0.6c1.4-1.4,2.1-3.2,2.1-5.5
			c0.4,0.2,0.9,0.3,1.6,0.3v0h0.1H27h0.5C28.7,13.2,29.6,12.6,30.2,11.6z"/>
		<polygon class="st1" points="31.5,15.2 30.1,16.6 31.5,18 32.9,16.6 		"/>
	</g>
	<path class="st1" d="M37.3,11.6c0,0.5-0.3,1.4-0.9,2.6c-0.2,0.3-0.3,0.5-0.3,0.5c-0.1,0-0.2-0.4-0.2-1.1L34.8,1.6l2.1-1.7
		c0.1-0.1,0.2-0.2,0.3-0.2c0.1,0,0.1,0.1,0.1,0.2V11.6z"/>
	<path class="st1" d="M54.1,7.6c0,0.2,0.1,0.4,0.1,0.5c0,0.1,0,0.2-0.1,0.2c-0.1,0-0.2,0-0.3-0.1c-0.4-0.2-1-0.3-1.9-0.3
		c-1,0-1.8,0.3-2.5,1c-0.5,0.5-0.8,0.9-0.8,1.2c0,0.4,0.3,0.6,0.9,0.8c0.3,0.1,0.9,0.2,1.8,0.3c0.8,0.1,1.3,0.3,1.6,0.5
		c0.4,0.3,0.7,0.9,0.7,1.8c0,2.1-0.9,3.6-2.8,4.5c-1.2,0.6-2.9,0.9-4.8,0.9c-3.6,0-5.4-1.5-5.4-4.5c0-0.6,0.2-1.5,0.5-2.6
		c0.4-1.3,0.9-2,1.3-2c0.3,0,0.5,0.2,0.5,0.6c0,0.1-0.1,0.5-0.3,1.2c-0.2,0.7-0.3,1.2-0.3,1.6c0,1.9,1.4,2.9,4.3,2.9
		c1.2,0,2.4-0.1,3.5-0.4c1.5-0.3,2.3-0.8,2.3-1.4c0-0.3-0.4-0.6-1.3-0.7c-1.3-0.2-2.1-0.3-2.5-0.4c-0.9-0.3-1.3-1-1.3-1.9
		c0-1,0.4-2.2,1.3-3.6c1-1.5,2.1-2.3,3.2-2.3c0.7,0,1.4,0.3,1.9,1C53.9,6.7,54.1,7.2,54.1,7.6z"/>
	<path class="st1" d="M66.8,2.9C66.8,3,66.9,3,66.8,2.9c0,0.1,0,0.1-0.1,0.1c-0.2,0-0.4,0-0.8-0.1c0,2-0.3,3.7-0.9,5.1
		c-0.4,0.9-0.8,1.5-1.3,1.9c0.5,0.9,0.8,1.6,0.8,2.2c0,1.1-0.4,1.9-1.2,2.4c-0.6,0.3-1.7,0.4-3.6,0.4c-0.6,0-1.1,0-1.6-0.1L59,12
		c1.1-0.5,2-1.2,2.8-2c-1.1-1.4-2.5-2.8-4.1-4.4c-0.2,0.5-0.3,0.8-0.3,0.8c0,0-0.1-0.1-0.1-0.1c-1.2-1.5-1.8-2.4-1.8-2.6
		c0-0.5,0.2-1.3,0.5-2.5c0-0.1,0.1-0.2,0.1-0.2c0,0,0.1,0,0.2,0.1c1.4,1.1,3.6,3.6,6.6,7.6c0.6-0.5,0.9-1.5,0.9-2.8V3.7
		c0-0.5-0.1-1.2-0.3-2.1l1.9-1.9c0.1-0.1,0.1-0.1,0.2,0.1C66,1,66.4,2,66.8,2.9z M63.2,12.2c-0.1-0.4-0.3-0.8-0.7-1.1
		c-0.6,0.5-1.2,0.9-1.8,1.3c0.3,0.1,0.7,0.1,1.2,0.1C62.5,12.4,62.9,12.3,63.2,12.2z"/>
	<path class="st1" d="M83,0c-3.7,1.3-6.4,2.4-8.2,3.1L74.2,6c0.7,0.5,1.5,1.2,2.4,2.1c0.9,1,1.4,1.8,1.4,2.3c0,0.3-0.2,0.5-0.7,0.6
		c-0.6,0.1-1.6,0.2-3.3,0.2h-0.9v0h-0.1c-1.2,0-1.8-0.5-1.8-1.6V0.1c0-0.2,0-0.3-0.1-0.3l0,0c0,0-0.2,0.1-0.4,0.3L69,1.5
		c-0.1,0.1-0.1,0.2,0,0.4c0.1,0.7,0.2,2.1,0.4,4.2c0.1,1.9,0.2,3.3,0.2,4.2c0,1.4,0.4,2.4,1.1,3.1c0.5,0.5,1.2,0.8,1.9,0.8h0.7h0.6
		h0.7c3.2,0,4.8-1.5,4.8-4.4c0-0.9-0.3-1.8-0.9-2.7c-0.4-0.6-1.1-1.4-2-2.4c2.8-1,4.8-1.7,6.1-2.1L83,0z"/>
	<path class="st1" d="M103.3,8.8c0,1.1-0.2,2-0.7,2.8c-0.5,1-1.3,1.5-2.3,1.5c-0.9,0-1.6-0.5-2.2-1.5c-0.5,1-1.2,1.5-2,1.5
		c-0.3,0-0.6-0.1-0.9-0.2c0.1,0.4,0.1,0.8,0.1,1.1c0,1.9-0.7,3.2-2.1,4.1c-1.2,0.7-2.7,1.1-4.7,1.1c-1.8,0-3.1-0.5-3.9-1.4
		c-0.7-0.8-1-1.8-1-2.9c0-0.6,0.2-1.5,0.5-2.6c0.4-1.3,0.9-2,1.3-2c0.3,0,0.5,0.2,0.5,0.6c0,0.1-0.1,0.5-0.3,1.2
		c-0.2,0.7-0.3,1.2-0.3,1.6c0,1.1,0.4,1.8,1.3,2.3c0.6,0.3,1.5,0.5,2.8,0.5c1.2,0,2.3-0.2,3.3-0.6c1.1-0.4,1.7-1,1.7-1.7
		c0-0.4-0.3-1.1-1-2c-0.6-0.8-1.1-1.4-1.5-1.8l1.1-2.3c0.1-0.2,0.2-0.2,0.3,0c1,1.4,1.9,2.1,2.8,2.1c0.6,0,1-0.2,1.2-0.7
		c0.1-0.1,0.2-0.5,0.4-1.3c0.1-0.5,0.3-0.7,0.6-0.7c0.3,0,0.4,0.2,0.5,0.7c0.1,0.7,0.3,1.1,0.4,1.3c0.3,0.5,0.8,0.7,1.5,0.7
		c0.9,0,1.3-0.3,1.3-1c0-0.3-0.3-0.9-1-1.7l1-1.6c0.1-0.2,0.2-0.3,0.2-0.3c0,0,0.1,0.1,0.2,0.2c0.2,0.2,0.4,0.6,0.6,1.1
		C103.1,7.7,103.3,8.3,103.3,8.8z"/>
	<path class="st1" d="M110.1,12.4c0,2.2-0.7,4-2.2,5.5c-0.4,0.5-0.7,0.7-0.8,0.7c-2,0-2.6-0.2-3.6-0.6c-0.2-0.1-0.2-0.2,0-0.2
		c1.4-0.5,1.7-1.2,3-2.2c1.4-1.1,2.1-2.1,2.1-3c0-0.4-0.3-0.9-0.8-1.5c-0.4-0.5-0.9-1-1.3-1.3l1.1-2.3c0.1-0.1,0.2-0.2,0.3,0
		C109.4,8.8,110.1,10.5,110.1,12.4z"/>
	<g>
		<path class="st1" d="M124.1,11.6c0.4-0.8,0.7-1.7,0.7-2.9c0-0.5-0.1-1.1-0.3-1.8c-0.2-0.7-0.5-1.2-0.9-1.6
			c-0.1-0.1-0.2-0.1-0.3,0.1l-1.3,1.9c-0.1,0.1-0.1,0.3,0,0.4c0.9,0.9,1.3,1.6,1.3,1.9c0,0.4-0.5,0.6-1.6,0.6h-0.7h-0.6h-1.4
			c-0.1-1-0.4-1.8-0.9-2.5c-0.6-0.9-1.3-1.4-2.1-1.4c-0.8,0-1.6,0.6-2.2,1.9c-0.5,1-0.8,2-0.8,2.8c0,0.9,0.3,1.5,0.9,1.8
			c0.5,0.2,1.2,0.4,2.2,0.3h0.8h0.8c0,0.7-0.7,1.7-2.1,2.8c-1.3,1.1-2.6,1.8-4,2.3c-0.2,0.1-0.2,0.1,0,0.2c1.1,0.4,2.6,0.6,4.6,0.6
			c0.1,0,0.4-0.2,0.8-0.7c1.3-1.5,2-3.2,2-5.1h1.4h0.6h0.5C122.6,13.2,123.5,12.6,124.1,11.6z M115.7,10.4c-0.9,0-1.3-0.3-1.3-0.8
			c0-0.2,0.1-0.4,0.3-0.6s0.4-0.3,0.7-0.3c0.3,0,0.6,0.1,0.9,0.3c0.4,0.3,0.8,0.7,1,1.2C116.6,10.3,116.1,10.4,115.7,10.4z"/>
		
			<rect x="121.7" y="15.6" transform="matrix(0.7073 -0.7069 0.7069 0.7073 24.1376 91.7003)" class="st1" width="2.2" height="2.2"/>
	</g>
</g>
</svg>
